<svg width="188" height="44" viewBox="0 0 188 44" fill="none" xmlns="http://www.w3.org/2000/svg">
<rect x="1" y="3" width="126" height="38" rx="19" stroke="#E6E8EC" stroke-width="2"/>
<path d="M16.8849 27V16.8182H20.902C21.6742 16.8182 22.3321 16.9657 22.8757 17.2607C23.4193 17.5523 23.8336 17.9583 24.1186 18.4787C24.407 18.9957 24.5511 19.5923 24.5511 20.2685C24.5511 20.9446 24.4053 21.5412 24.1136 22.0582C23.822 22.5753 23.3994 22.978 22.8459 23.2663C22.2957 23.5547 21.6295 23.6989 20.8473 23.6989H18.2869V21.9737H20.4993C20.9136 21.9737 21.255 21.9025 21.5234 21.7599C21.7952 21.6141 21.9974 21.4136 22.13 21.1584C22.2659 20.8999 22.3338 20.6032 22.3338 20.2685C22.3338 19.9304 22.2659 19.6354 22.13 19.3835C21.9974 19.1283 21.7952 18.9311 21.5234 18.7919C21.2517 18.6494 20.907 18.5781 20.4893 18.5781H19.0376V27H16.8849ZM30.8066 23.7486V19.3636H32.9245V27H30.8912V25.6129H30.8116C30.6393 26.0604 30.3526 26.42 29.9515 26.6918C29.5538 26.9635 29.0682 27.0994 28.4949 27.0994C27.9844 27.0994 27.5353 26.9834 27.1475 26.7514C26.7598 26.5194 26.4565 26.1896 26.2377 25.7621C26.0223 25.3345 25.9129 24.8224 25.9096 24.2259V19.3636H28.0275V23.848C28.0308 24.2988 28.1518 24.6551 28.3904 24.9169C28.6291 25.1787 28.9489 25.3097 29.35 25.3097C29.6052 25.3097 29.8438 25.2517 30.0659 25.1357C30.2879 25.0163 30.4669 24.8407 30.6028 24.6087C30.742 24.3767 30.81 24.09 30.8066 23.7486ZM34.6186 27V19.3636H36.6719V20.696H36.7514C36.8906 20.2221 37.1243 19.8641 37.4524 19.6222C37.7805 19.3769 38.1584 19.2543 38.5859 19.2543C38.692 19.2543 38.8063 19.2609 38.929 19.2741C39.0516 19.2874 39.1593 19.3056 39.2521 19.3288V21.2081C39.1527 21.1783 39.0152 21.1518 38.8395 21.1286C38.6638 21.1054 38.5031 21.0938 38.3572 21.0938C38.0457 21.0938 37.7673 21.1617 37.522 21.2976C37.2801 21.4302 37.0878 21.6158 36.9453 21.8544C36.8061 22.093 36.7365 22.3681 36.7365 22.6797V27H34.6186ZM43.4419 27.1491C42.6597 27.1491 41.9869 26.9834 41.4235 26.652C40.8633 26.3172 40.4325 25.8532 40.1309 25.2599C39.8326 24.6667 39.6834 23.9839 39.6834 23.2116C39.6834 22.4295 39.8342 21.7434 40.1358 21.1534C40.4408 20.5601 40.8733 20.0978 41.4334 19.7663C41.9935 19.4316 42.6597 19.2642 43.432 19.2642C44.0982 19.2642 44.6815 19.3852 45.182 19.6271C45.6825 19.8691 46.0785 20.2088 46.3702 20.6463C46.6619 21.0838 46.8226 21.5975 46.8525 22.1875H44.8539C44.7975 21.8063 44.6484 21.4998 44.4064 21.2678C44.1678 21.0324 43.8546 20.9148 43.4668 20.9148C43.1387 20.9148 42.852 21.0043 42.6067 21.1832C42.3648 21.3589 42.1758 21.6158 42.04 21.9538C41.9041 22.2919 41.8361 22.7012 41.8361 23.1818C41.8361 23.669 41.9024 24.0833 42.035 24.4247C42.1709 24.7661 42.3614 25.0263 42.6067 25.2053C42.852 25.3842 43.1387 25.4737 43.4668 25.4737C43.7087 25.4737 43.9258 25.424 44.1181 25.3246C44.3136 25.2251 44.4744 25.081 44.6003 24.892C44.7296 24.6998 44.8141 24.4695 44.8539 24.201H46.8525C46.8193 24.7843 46.6602 25.2981 46.3752 25.7422C46.0935 26.183 45.704 26.5277 45.2069 26.7763C44.7097 27.0249 44.1214 27.1491 43.4419 27.1491ZM50.3263 22.5852V27H48.2085V16.8182H50.2667V20.7109H50.3562C50.5285 20.2602 50.8069 19.9072 51.1914 19.652C51.5759 19.3935 52.0581 19.2642 52.6381 19.2642C53.1684 19.2642 53.6308 19.3802 54.0252 19.6122C54.4229 19.8409 54.7312 20.1707 54.9499 20.6016C55.172 21.0291 55.2814 21.5412 55.2781 22.1378V27H53.1602V22.5156C53.1635 22.045 53.0442 21.6787 52.8022 21.4169C52.5636 21.1551 52.2288 21.0241 51.7979 21.0241C51.5096 21.0241 51.2544 21.0855 51.0323 21.2081C50.8136 21.3307 50.6412 21.5097 50.5153 21.745C50.3926 21.977 50.3297 22.2571 50.3263 22.5852ZM59.1223 27.1442C58.6351 27.1442 58.2009 27.0597 57.8198 26.8906C57.4386 26.7183 57.137 26.4647 56.915 26.13C56.6962 25.7919 56.5868 25.371 56.5868 24.8672C56.5868 24.4429 56.6647 24.0866 56.8205 23.7983C56.9763 23.5099 57.1884 23.2779 57.4569 23.1023C57.7253 22.9266 58.0302 22.794 58.3716 22.7045C58.7163 22.6151 59.0776 22.5521 59.4554 22.5156C59.8996 22.4692 60.2575 22.4261 60.5293 22.3864C60.8011 22.3433 60.9983 22.2803 61.1209 22.1974C61.2435 22.1146 61.3049 21.992 61.3049 21.8295V21.7997C61.3049 21.4848 61.2054 21.2412 61.0066 21.0689C60.811 20.8965 60.5326 20.8104 60.1713 20.8104C59.7902 20.8104 59.4869 20.8949 59.2615 21.0639C59.0362 21.2296 58.887 21.4384 58.8141 21.6903L56.8553 21.5312C56.9547 21.0672 57.1503 20.6662 57.4419 20.3281C57.7336 19.9867 58.1098 19.7249 58.5705 19.5426C59.0345 19.357 59.5714 19.2642 60.1813 19.2642C60.6055 19.2642 61.0115 19.3139 61.3993 19.4134C61.7904 19.5128 62.1368 19.6669 62.4384 19.8757C62.7433 20.0845 62.9836 20.353 63.1593 20.6811C63.3349 21.0059 63.4228 21.3954 63.4228 21.8494V27H61.4142V25.9411H61.3546C61.2319 26.1797 61.0679 26.3902 60.8624 26.5724C60.6569 26.7514 60.41 26.8923 60.1216 26.995C59.8333 27.0945 59.5002 27.1442 59.1223 27.1442ZM59.7289 25.6825C60.0404 25.6825 60.3155 25.6212 60.5542 25.4986C60.7928 25.3726 60.9801 25.2036 61.1159 24.9915C61.2518 24.7794 61.3198 24.5391 61.3198 24.2706V23.4602C61.2535 23.5033 61.1623 23.5431 61.0463 23.5795C60.9337 23.6127 60.806 23.6442 60.6635 23.674C60.521 23.7005 60.3785 23.7254 60.236 23.7486C60.0935 23.7685 59.9642 23.7867 59.8482 23.8033C59.5996 23.8397 59.3825 23.8977 59.1969 23.9773C59.0113 24.0568 58.8671 24.1645 58.7644 24.3004C58.6616 24.433 58.6103 24.5987 58.6103 24.7976C58.6103 25.0859 58.7147 25.3063 58.9235 25.4588C59.1356 25.608 59.4041 25.6825 59.7289 25.6825ZM71.4196 21.5412L69.4806 21.6605C69.4475 21.4948 69.3762 21.3456 69.2669 21.2131C69.1575 21.0772 69.0133 20.9695 68.8343 20.8899C68.6587 20.8071 68.4482 20.7656 68.2029 20.7656C67.8748 20.7656 67.5981 20.8352 67.3727 20.9744C67.1473 21.1103 67.0346 21.2926 67.0346 21.5213C67.0346 21.7036 67.1075 21.8577 67.2534 21.9837C67.3992 22.1096 67.6494 22.2107 68.0041 22.2869L69.3862 22.5653C70.1286 22.7178 70.6821 22.9631 71.0467 23.3011C71.4113 23.6392 71.5936 24.0833 71.5936 24.6335C71.5936 25.134 71.4461 25.5732 71.1511 25.951C70.8594 26.3288 70.4584 26.6238 69.948 26.8359C69.4409 27.0447 68.8559 27.1491 68.193 27.1491C67.1821 27.1491 66.3767 26.9387 65.7768 26.5178C65.1802 26.0935 64.8306 25.5168 64.7278 24.7876L66.8109 24.6783C66.8739 24.9865 67.0263 25.2218 67.2683 25.3842C67.5102 25.5433 67.8201 25.6229 68.198 25.6229C68.5692 25.6229 68.8675 25.5516 69.0929 25.4091C69.3216 25.2633 69.4376 25.076 69.4409 24.8473C69.4376 24.6551 69.3564 24.4976 69.1973 24.375C69.0382 24.2491 68.7929 24.1529 68.4615 24.0866L67.139 23.8232C66.3933 23.674 65.8381 23.4155 65.4735 23.0476C65.1123 22.6797 64.9316 22.2107 64.9316 21.6406C64.9316 21.1501 65.0642 20.7275 65.3294 20.3729C65.5978 20.0182 65.974 19.7448 66.4579 19.5526C66.9451 19.3603 67.5152 19.2642 68.1681 19.2642C69.1326 19.2642 69.8916 19.468 70.4451 19.8757C71.002 20.2834 71.3268 20.8385 71.4196 21.5412ZM76.4073 27.1491C75.6218 27.1491 74.9457 26.9901 74.3789 26.6719C73.8155 26.3504 73.3813 25.8963 73.0763 25.3097C72.7714 24.7197 72.619 24.022 72.619 23.2166C72.619 22.4311 72.7714 21.7417 73.0763 21.1484C73.3813 20.5552 73.8105 20.0928 74.364 19.7614C74.9208 19.4299 75.5737 19.2642 76.3228 19.2642C76.8266 19.2642 77.2956 19.3454 77.7298 19.5078C78.1673 19.6669 78.5484 19.9072 78.8732 20.2287C79.2013 20.5502 79.4566 20.9545 79.6388 21.4418C79.8211 21.9257 79.9123 22.4924 79.9123 23.142V23.7237H73.4641V22.4112H77.9187C77.9187 22.1063 77.8524 21.8362 77.7198 21.6009C77.5872 21.3655 77.4033 21.1816 77.168 21.049C76.936 20.9131 76.6658 20.8452 76.3576 20.8452C76.0361 20.8452 75.7511 20.9197 75.5025 21.0689C75.2572 21.2147 75.065 21.4119 74.9258 21.6605C74.7866 21.9058 74.7153 22.1792 74.712 22.4808V23.7287C74.712 24.1065 74.7816 24.433 74.9208 24.7081C75.0633 24.9832 75.2638 25.1953 75.5224 25.3445C75.7809 25.4936 76.0875 25.5682 76.4421 25.5682C76.6774 25.5682 76.8929 25.535 77.0884 25.4688C77.284 25.4025 77.4513 25.303 77.5906 25.1705C77.7298 25.0379 77.8358 24.8755 77.9087 24.6832L79.8675 24.8125C79.7681 25.2831 79.5643 25.6941 79.256 26.0455C78.9511 26.3935 78.5567 26.6652 78.0728 26.8608C77.5922 27.053 77.0371 27.1491 76.4073 27.1491ZM87.9352 28.2727V15.5455H88.7505V28.2727H87.9352ZM90.0978 19.7464C90.0581 19.3454 89.8874 19.0339 89.5858 18.8118C89.2842 18.5897 88.8748 18.4787 88.3578 18.4787C88.0065 18.4787 87.7098 18.5284 87.4679 18.6278C87.2259 18.724 87.0403 18.8582 86.911 19.0305C86.7851 19.2029 86.7221 19.3984 86.7221 19.6172C86.7155 19.7995 86.7536 19.9586 86.8365 20.0945C86.9226 20.2304 87.0403 20.348 87.1895 20.4474C87.3386 20.5436 87.5109 20.6281 87.7065 20.701C87.902 20.7706 88.1109 20.8303 88.3329 20.88L89.2477 21.0987C89.6918 21.1982 90.0995 21.3307 90.4707 21.4964C90.8419 21.6622 91.1634 21.866 91.4352 22.108C91.707 22.3499 91.9174 22.6349 92.0666 22.9631C92.219 23.2912 92.2969 23.6674 92.3002 24.0916C92.2969 24.7147 92.1378 25.255 91.823 25.7124C91.5114 26.1664 91.0607 26.5194 90.4707 26.7713C89.8841 27.0199 89.1764 27.1442 88.3478 27.1442C87.5259 27.1442 86.81 27.0182 86.2001 26.7663C85.5936 26.5144 85.1196 26.1416 84.7782 25.6477C84.4402 25.1506 84.2628 24.5357 84.2463 23.8033H86.3294C86.3526 24.1446 86.4503 24.4297 86.6227 24.6584C86.7984 24.8838 87.032 25.0545 87.3237 25.1705C87.6187 25.2831 87.9518 25.3395 88.323 25.3395C88.6876 25.3395 89.0041 25.2865 89.2725 25.1804C89.5443 25.0743 89.7548 24.9268 89.9039 24.7379C90.0531 24.549 90.1277 24.3319 90.1277 24.0866C90.1277 23.858 90.0597 23.6657 89.9238 23.5099C89.7913 23.3542 89.5957 23.2216 89.3372 23.1122C89.082 23.0028 88.7688 22.9034 88.3975 22.8139L87.2889 22.5355C86.4305 22.3267 85.7527 22.0002 85.2555 21.5561C84.7583 21.112 84.5114 20.5137 84.5147 19.7614C84.5114 19.1449 84.6755 18.6063 85.0069 18.1456C85.3417 17.6849 85.8007 17.3253 86.3841 17.0668C86.9674 16.8082 87.6303 16.679 88.3727 16.679C89.1284 16.679 89.7879 16.8082 90.3514 17.0668C90.9181 17.3253 91.359 17.6849 91.6738 18.1456C91.9887 18.6063 92.1511 19.1399 92.161 19.7464H90.0978ZM93.6886 27V25.4489L97.3129 22.093C97.6211 21.7947 97.8796 21.5263 98.0884 21.2876C98.3005 21.049 98.4613 20.8153 98.5707 20.5866C98.68 20.3546 98.7347 20.1044 98.7347 19.8359C98.7347 19.5376 98.6668 19.2808 98.5309 19.0653C98.395 18.8466 98.2094 18.6792 97.9741 18.5632C97.7388 18.4439 97.4719 18.3842 97.1737 18.3842C96.8621 18.3842 96.5903 18.4472 96.3583 18.5732C96.1263 18.6991 95.9473 18.8797 95.8214 19.1151C95.6954 19.3504 95.6325 19.6304 95.6325 19.9553H93.5891C93.5891 19.2891 93.7399 18.7107 94.0415 18.2202C94.3432 17.7296 94.7657 17.3501 95.3093 17.0817C95.8529 16.8132 96.4793 16.679 97.1886 16.679C97.9177 16.679 98.5524 16.8082 99.0927 17.0668C99.6362 17.322 100.059 17.6766 100.36 18.1307C100.662 18.5848 100.813 19.1051 100.813 19.6918C100.813 20.0762 100.737 20.4557 100.584 20.8303C100.435 21.2048 100.168 21.6207 99.7837 22.0781C99.3993 22.5322 98.8574 23.0774 98.158 23.7138L96.6715 25.1705V25.2401H100.947V27H93.6886ZM106.499 27.2237C105.644 27.2204 104.908 27.0099 104.292 26.5923C103.679 26.1747 103.206 25.5698 102.875 24.7777C102.547 23.9856 102.384 23.0327 102.388 21.919C102.388 20.8087 102.552 19.8625 102.88 19.0803C103.211 18.2981 103.684 17.7031 104.297 17.2955C104.913 16.8845 105.647 16.679 106.499 16.679C107.351 16.679 108.083 16.8845 108.697 17.2955C109.313 17.7064 109.787 18.303 110.118 19.0852C110.45 19.8641 110.614 20.8087 110.611 21.919C110.611 23.036 110.445 23.9905 110.113 24.7827C109.785 25.5748 109.315 26.1797 108.702 26.5973C108.088 27.0149 107.354 27.2237 106.499 27.2237ZM106.499 25.4389C107.082 25.4389 107.548 25.1456 107.896 24.5589C108.244 23.9723 108.416 23.0923 108.413 21.919C108.413 21.1468 108.334 20.5038 108.175 19.9901C108.019 19.4763 107.797 19.0902 107.508 18.8317C107.223 18.5732 106.887 18.4439 106.499 18.4439C105.919 18.4439 105.455 18.7339 105.107 19.3139C104.759 19.8939 104.583 20.7623 104.58 21.919C104.58 22.7012 104.658 23.3542 104.814 23.8778C104.973 24.3982 105.197 24.7893 105.485 25.0511C105.773 25.3097 106.111 25.4389 106.499 25.4389Z" fill="#23262F"/>
<circle cx="166" cy="22" r="22" fill="#23262F"/>
<path fill-rule="evenodd" clip-rule="evenodd" d="M165.25 13.8125C161.36 13.8125 157.75 16.3756 157.75 20.375C157.75 21.8472 158.114 22.9333 158.765 23.8019C159.428 24.6873 160.448 25.4246 161.89 26.0851L162.656 26.4355L162.389 27.234C162.007 28.3798 161.359 29.4323 160.705 30.2978C162.967 29.5872 165.922 28.4878 168.011 27.095C170.083 25.7138 171.247 24.6269 171.905 23.6141C172.54 22.638 172.75 21.6603 172.75 20.375C172.75 16.3756 169.14 13.8125 165.25 13.8125ZM155.875 20.375C155.875 14.9994 160.702 11.9375 165.25 11.9375C169.798 11.9375 174.625 14.9994 174.625 20.375C174.625 21.9022 174.366 23.2682 173.477 24.6359C172.612 25.9669 171.198 27.2237 169.051 28.655C166.261 30.5154 162.218 31.8343 159.904 32.4951C159.144 32.7122 158.538 32.2661 158.277 31.8013C158.02 31.3436 157.957 30.6363 158.448 30.0888C159.104 29.3561 159.824 28.4124 160.306 27.3942C159.063 26.7351 158.025 25.9415 157.264 24.9261C156.332 23.6822 155.875 22.184 155.875 20.375Z" fill="#FCFCFD"/>
<path d="M162.438 20.375C162.438 21.1517 161.808 21.7812 161.031 21.7812C160.255 21.7812 159.625 21.1517 159.625 20.375C159.625 19.5983 160.255 18.9688 161.031 18.9688C161.808 18.9688 162.438 19.5983 162.438 20.375Z" fill="#FCFCFD"/>
<path d="M166.654 20.375C166.654 21.1517 166.024 21.7812 165.248 21.7812C164.471 21.7812 163.841 21.1517 163.841 20.375C163.841 19.5983 164.471 18.9688 165.248 18.9688C166.024 18.9688 166.654 19.5983 166.654 20.375Z" fill="#FCFCFD"/>
<path d="M169.469 21.7812C170.245 21.7812 170.875 21.1517 170.875 20.375C170.875 19.5983 170.245 18.9688 169.469 18.9688C168.692 18.9688 168.062 19.5983 168.062 20.375C168.062 21.1517 168.692 21.7812 169.469 21.7812Z" fill="#FCFCFD"/>
</svg>
